<mxfile host="app.diagrams.net" modified="2024-03-21T05:32:45.225Z" agent="Mozilla/5.0 (Macintosh; Intel Mac OS X 10_15_7) AppleWebKit/537.36 (KHTML, like Gecko) Chrome/123.0.0.0 Safari/537.36" version="24.0.7" etag="ewOUckqI-CX6zYQ5TErz" type="github">
  <diagram name="Page-1" id="oCvp-l3smrO-nS7ErOQN">
    <mxGraphModel>
      <root>
        <mxCell id="0" />
        <mxCell id="1" parent="0" />
      </root>
    </mxGraphModel>
  </diagram>
</mxfile>
